<svg width="55" height="24" viewBox="0 0 55 24" fill="none" xmlns="http://www.w3.org/2000/svg">
<path d="M14 0.664V4.28H4.688V10.008H11.824V13.56H4.688V23H0.208V0.664H14ZM25.0488 23.288C23.3421 23.288 21.8061 22.9147 20.4408 22.168C19.0754 21.4 17.9981 20.3227 17.2088 18.936C16.4408 17.5493 16.0568 15.9493 16.0568 14.136C16.0568 12.3227 16.4514 10.7227 17.2408 9.336C18.0514 7.94933 19.1501 6.88267 20.5368 6.136C21.9234 5.368 23.4701 4.984 25.1768 4.984C26.8834 4.984 28.4301 5.368 29.8168 6.136C31.2034 6.88267 32.2914 7.94933 33.0808 9.336C33.8914 10.7227 34.2968 12.3227 34.2968 14.136C34.2968 15.9493 33.8808 17.5493 33.0487 18.936C32.2381 20.3227 31.1288 21.4 29.7208 22.168C28.3341 22.9147 26.7768 23.288 25.0488 23.288ZM25.0488 19.384C25.8594 19.384 26.6168 19.192 27.3208 18.808C28.0461 18.4027 28.6221 17.8053 29.0488 17.016C29.4754 16.2267 29.6888 15.2667 29.6888 14.136C29.6888 12.4507 29.2408 11.16 28.3448 10.264C27.4701 9.34667 26.3928 8.888 25.1128 8.888C23.8328 8.888 22.7554 9.34667 21.8808 10.264C21.0274 11.16 20.6008 12.4507 20.6008 14.136C20.6008 15.8213 21.0168 17.1227 21.8488 18.04C22.7021 18.936 23.7688 19.384 25.0488 19.384ZM45.455 23.288C43.7483 23.288 42.2123 22.9147 40.847 22.168C39.4817 21.4 38.4043 20.3227 37.615 18.936C36.847 17.5493 36.463 15.9493 36.463 14.136C36.463 12.3227 36.8577 10.7227 37.647 9.336C38.4577 7.94933 39.5563 6.88267 40.943 6.136C42.3297 5.368 43.8763 4.984 45.583 4.984C47.2897 4.984 48.8363 5.368 50.223 6.136C51.6097 6.88267 52.6977 7.94933 53.487 9.336C54.2977 10.7227 54.703 12.3227 54.703 14.136C54.703 15.9493 54.287 17.5493 53.455 18.936C52.6443 20.3227 51.535 21.4 50.127 22.168C48.7403 22.9147 47.183 23.288 45.455 23.288ZM45.455 19.384C46.2657 19.384 47.023 19.192 47.727 18.808C48.4523 18.4027 49.0283 17.8053 49.455 17.016C49.8817 16.2267 50.095 15.2667 50.095 14.136C50.095 12.4507 49.647 11.16 48.751 10.264C47.8763 9.34667 46.799 8.888 45.519 8.888C44.239 8.888 43.1617 9.34667 42.287 10.264C41.4337 11.16 41.007 12.4507 41.007 14.136C41.007 15.8213 41.423 17.1227 42.255 18.04C43.1083 18.936 44.175 19.384 45.455 19.384Z" fill="black"/>
<path d="M14 0.664H15V-0.336H14V0.664ZM14 4.28V5.28H15V4.28H14ZM4.688 4.28V3.28H3.688V4.28H4.688ZM4.688 10.008H3.688V11.008H4.688V10.008ZM11.824 10.008H12.824V9.008H11.824V10.008ZM11.824 13.56V14.56H12.824V13.56H11.824ZM4.688 13.56V12.56H3.688V13.56H4.688ZM4.688 23V24H5.688V23H4.688ZM0.208 23H-0.792V24H0.208V23ZM0.208 0.664V-0.336H-0.792V0.664H0.208ZM13 0.664V4.28H15V0.664H13ZM14 3.28H4.688V5.28H14V3.28ZM3.688 4.28V10.008H5.688V4.28H3.688ZM4.688 11.008H11.824V9.008H4.688V11.008ZM10.824 10.008V13.56H12.824V10.008H10.824ZM11.824 12.56H4.688V14.56H11.824V12.56ZM3.688 13.56V23H5.688V13.56H3.688ZM4.688 22H0.208V24H4.688V22ZM1.208 23V0.664H-0.792V23H1.208ZM0.208 1.664H14V-0.336H0.208V1.664ZM20.4408 22.168L19.9505 23.0396L19.9609 23.0454L20.4408 22.168ZM17.2087 18.936L16.3339 19.4205L16.3397 19.4307L17.2087 18.936ZM17.2407 9.336L16.3774 8.83127L16.3717 8.8413L17.2407 9.336ZM20.5368 6.136L21.0109 7.01653L21.0212 7.01079L20.5368 6.136ZM29.8167 6.136L29.3322 7.01085L29.3427 7.01647L29.8167 6.136ZM33.0807 9.336L32.2116 9.83073L32.2175 9.8407L33.0807 9.336ZM33.0488 18.936L32.1912 18.4215L32.1855 18.4313L33.0488 18.936ZM29.7208 22.168L30.1949 23.0485L30.1996 23.0459L29.7208 22.168ZM27.3208 18.808L27.7996 19.6859L27.8086 19.6809L27.3208 18.808ZM29.0488 17.016L29.9285 17.4915L29.0488 17.016ZM28.3447 10.264L27.621 10.9541L27.6292 10.9627L27.6376 10.9711L28.3447 10.264ZM21.8808 10.264L21.157 9.57392L21.1566 9.57434L21.8808 10.264ZM21.8488 18.04L21.108 18.7118L21.1162 18.7208L21.1246 18.7297L21.8488 18.04ZM25.0488 22.288C23.4932 22.288 22.1249 21.9492 20.9206 21.2906L19.9609 23.0454C21.4873 23.8801 23.191 24.288 25.0488 24.288V22.288ZM20.931 21.2964C19.7269 20.6191 18.7792 19.6734 18.0778 18.4413L16.3397 19.4307C17.217 20.9719 18.424 22.1809 19.9505 23.0396L20.931 21.2964ZM18.0835 18.4515C17.4089 17.2333 17.0567 15.8045 17.0567 14.136H15.0567C15.0567 16.0941 15.4726 17.8654 16.334 19.4205L18.0835 18.4515ZM17.0567 14.136C17.0567 12.4721 17.4175 11.047 18.1098 9.8307L16.3717 8.8413C15.4854 10.3983 15.0567 12.1733 15.0567 14.136H17.0567ZM18.104 9.8407C18.8239 8.60934 19.7893 7.67421 21.0109 7.01647L20.0627 5.25553C18.5108 6.09112 17.2789 7.28932 16.3775 8.8313L18.104 9.8407ZM21.0212 7.01079C22.2484 6.33116 23.6262 5.984 25.1768 5.984V3.984C23.314 3.984 21.5985 4.40484 20.0522 5.26121L21.0212 7.01079ZM25.1768 5.984C26.7273 5.984 28.1051 6.33116 29.3323 7.01079L30.3013 5.26121C28.755 4.40484 27.0395 3.984 25.1768 3.984V5.984ZM29.3427 7.01647C30.5618 7.67293 31.5139 8.60487 32.2117 9.8307L33.9498 8.8413C33.0689 7.29379 31.845 6.0924 30.2909 5.25553L29.3427 7.01647ZM32.2175 9.8407C32.9275 11.0553 33.2968 12.4767 33.2968 14.136H35.2968C35.2968 12.1686 34.8553 10.3901 33.944 8.8313L32.2175 9.8407ZM33.2968 14.136C33.2968 15.7906 32.9191 17.2085 32.1913 18.4215L33.9062 19.4505C34.8424 17.8902 35.2968 16.108 35.2968 14.136H33.2968ZM32.1855 18.4313C31.4665 19.6612 30.4899 20.6094 29.2419 21.2901L30.1996 23.0459C31.7676 22.1906 33.0097 20.9842 33.912 19.4407L32.1855 18.4313ZM29.2467 21.2875C28.0195 21.9483 26.6277 22.288 25.0488 22.288V24.288C26.9258 24.288 28.6487 23.881 30.1949 23.0485L29.2467 21.2875ZM25.0488 20.384C26.0248 20.384 26.947 20.1509 27.7996 19.6859L26.8419 17.9301C26.2865 18.2331 25.694 18.384 25.0488 18.384V20.384ZM27.8086 19.6809C28.7129 19.1756 29.419 18.4339 29.9285 17.4915L28.169 16.5405C27.8251 17.1767 27.3793 17.6297 26.8329 17.9351L27.8086 19.6809ZM29.9285 17.4915C30.452 16.5229 30.6888 15.3904 30.6888 14.136H28.6888C28.6888 15.143 28.4988 15.9304 28.169 16.5405L29.9285 17.4915ZM30.6888 14.136C30.6888 12.276 30.1909 10.696 29.0519 9.55689L27.6376 10.9711C28.2906 11.624 28.6888 12.6254 28.6888 14.136H30.6888ZM29.0685 9.57392C28.003 8.45646 26.6632 7.888 25.1128 7.888V9.888C26.1223 9.888 26.9372 10.2369 27.621 10.9541L29.0685 9.57392ZM25.1128 7.888C23.5623 7.888 22.2225 8.45646 21.157 9.57392L22.6045 10.9541C23.2883 10.2369 24.1032 9.888 25.1128 9.888V7.888ZM21.1566 9.57434C20.0702 10.7151 19.6007 12.2885 19.6007 14.136H21.6007C21.6007 12.6128 21.9846 11.6049 22.6049 10.9537L21.1566 9.57434ZM19.6007 14.136C19.6007 15.9791 20.057 17.5529 21.108 18.7118L22.5895 17.3682C21.9765 16.6924 21.6007 15.6636 21.6007 14.136H19.6007ZM21.1246 18.7297C22.1739 19.8314 23.5057 20.384 25.0488 20.384V18.384C24.0318 18.384 23.2303 18.0406 22.5729 17.3503L21.1246 18.7297ZM40.847 22.168L40.3567 23.0396L40.3672 23.0454L40.847 22.168ZM37.615 18.936L36.7402 19.4205L36.7459 19.4307L37.615 18.936ZM37.647 9.336L36.7836 8.83127L36.7779 8.8413L37.647 9.336ZM40.943 6.136L41.4171 7.01653L41.4275 7.01079L40.943 6.136ZM50.223 6.136L49.7385 7.01085L49.7489 7.01647L50.223 6.136ZM53.487 9.336L52.6179 9.83073L52.6237 9.8407L53.487 9.336ZM53.455 18.936L52.5975 18.4215L52.5917 18.4313L53.455 18.936ZM50.127 22.168L50.6011 23.0485L50.6059 23.0459L50.127 22.168ZM47.727 18.808L48.2059 19.6859L48.2148 19.6809L47.727 18.808ZM49.455 17.016L50.3347 17.4915L49.455 17.016ZM48.751 10.264L48.0273 10.9541L48.0355 10.9627L48.0439 10.9711L48.751 10.264ZM42.287 10.264L41.5633 9.57392L41.5629 9.57434L42.287 10.264ZM42.255 18.04L41.5143 18.7118L41.5225 18.7208L41.5309 18.7297L42.255 18.04ZM45.455 22.288C43.8994 22.288 42.5311 21.9492 41.3268 21.2906L40.3672 23.0454C41.8936 23.8801 43.5972 24.288 45.455 24.288V22.288ZM41.3373 21.2964C40.1331 20.6191 39.1854 19.6734 38.4841 18.4413L36.7459 19.4307C37.6233 20.9719 38.8302 22.1809 40.3567 23.0396L41.3373 21.2964ZM38.4898 18.4515C37.8151 17.2333 37.463 15.8045 37.463 14.136H35.463C35.463 16.0941 35.8789 17.8654 36.7402 19.4205L38.4898 18.4515ZM37.463 14.136C37.463 12.4721 37.8237 11.047 38.5161 9.8307L36.7779 8.8413C35.8916 10.3983 35.463 12.1733 35.463 14.136H37.463ZM38.5103 9.8407C39.2302 8.60934 40.1956 7.67421 41.4171 7.01647L40.4689 5.25553C38.9171 6.09112 37.6852 7.28932 36.7837 8.8313L38.5103 9.8407ZM41.4275 7.01079C42.6546 6.33116 44.0325 5.984 45.583 5.984V3.984C43.7202 3.984 42.0047 4.40484 40.4585 5.26121L41.4275 7.01079ZM45.583 5.984C47.1335 5.984 48.5114 6.33116 49.7385 7.01079L50.7075 5.26121C49.1613 4.40484 47.4458 3.984 45.583 3.984V5.984ZM49.7489 7.01647C50.968 7.67293 51.9202 8.60487 52.6179 9.8307L54.3561 8.8413C53.4752 7.29379 52.2513 6.0924 50.6971 5.25553L49.7489 7.01647ZM52.6237 9.8407C53.3338 11.0553 53.703 12.4767 53.703 14.136H55.703C55.703 12.1686 55.2616 10.3901 54.3503 8.8313L52.6237 9.8407ZM53.703 14.136C53.703 15.7906 53.3253 17.2085 52.5975 18.4215L54.3125 19.4505C55.2487 17.8902 55.703 16.108 55.703 14.136H53.703ZM52.5917 18.4313C51.8727 19.6612 50.8962 20.6094 49.6481 21.2901L50.6059 23.0459C52.1738 22.1906 53.416 20.9842 54.3183 19.4407L52.5917 18.4313ZM49.6529 21.2875C48.4258 21.9483 47.034 22.288 45.455 22.288V24.288C47.3321 24.288 49.0549 23.881 50.6011 23.0485L49.6529 21.2875ZM45.455 20.384C46.4311 20.384 47.3533 20.1509 48.2059 19.6859L47.2481 17.9301C46.6927 18.2331 46.1003 18.384 45.455 18.384V20.384ZM48.2148 19.6809C49.1191 19.1756 49.8253 18.4339 50.3347 17.4915L48.5753 16.5405C48.2314 17.1767 47.7855 17.6297 47.2392 17.9351L48.2148 19.6809ZM50.3347 17.4915C50.8583 16.5229 51.095 15.3904 51.095 14.136H49.095C49.095 15.143 48.9051 15.9304 48.5753 16.5405L50.3347 17.4915ZM51.095 14.136C51.095 12.276 50.5972 10.696 49.4581 9.55689L48.0439 10.9711C48.6968 11.624 49.095 12.6254 49.095 14.136H51.095ZM49.4747 9.57392C48.4093 8.45646 47.0694 7.888 45.519 7.888V9.888C46.5286 9.888 47.3434 10.2369 48.0273 10.9541L49.4747 9.57392ZM45.519 7.888C43.9686 7.888 42.6287 8.45646 41.5633 9.57392L43.0107 10.9541C43.6946 10.2369 44.5094 9.888 45.519 9.888V7.888ZM41.5629 9.57434C40.4765 10.7151 40.007 12.2885 40.007 14.136H42.007C42.007 12.6128 42.3909 11.6049 43.0111 10.9537L41.5629 9.57434ZM40.007 14.136C40.007 15.9791 40.4632 17.5529 41.5143 18.7118L42.9957 17.3682C42.3828 16.6924 42.007 15.6636 42.007 14.136H40.007ZM41.5309 18.7297C42.5801 19.8314 43.9119 20.384 45.455 20.384V18.384C44.4381 18.384 43.6365 18.0406 42.9791 17.3503L41.5309 18.7297Z" fill="black"/>
</svg>
